<svg xmlns="http://www.w3.org/2000/svg" width="28" height="28" viewBox="0 0 28 28">
	<path d="M14,0L14,0c7.7,0,14,6.3,14,14l0,0c0,7.7-6.3,14-14,14l0,0C6.3,28,0,21.7,0,14l0,0
	C0,6.3,6.3,0,14,0z" fill="#FFFFFF" class="__b"/>
	<path id="Path_4354_00000119103599466541098870000010045516545108953022_"  fill="#FFFFFF" class="__b" d="M8.3,15.3v3.5h12v-3.5"/>
	<polygon fill="#1428A0" points="21.1,19.6 7.6,19.6 7.6,15.3 9.1,15.3 9.1,18.1 19.6,18.1 19.6,15.3 21.1,15.3" class="__i"/>
	<rect x="13.5" y="8.5" width="1.5" height="7" fill="#1428A0" class="__i"/>
	<polygon fill="#1428A0" points="14.2,16.6 10.8,13.3 11.9,12.2 14.2,14.5 16.5,12.2 17.6,13.3" class="__i"/>
</svg>
