<svg xmlns="http://www.w3.org/2000/svg" width="56" height="56" viewBox="0 0 56 56">
    <g data-name="그룹 4178" transform="translate(5.25 5.25)">
        <path data-name="패스 45371" d="M0-1a1 1 0 0 1 1 1v10.06a1 1 0 0 1-1 1 1 1 0 0 1-1-1V0a1 1 0 0 1 1-1z" transform="translate(20.118 14.232)" style="fill:#1428a0"/>
        <path data-name="패스 45372" d="M0 4.288a1 1 0 0 1-1-1v-5.25a1 1 0 0 1 1-1 1 1 0 0 1 1 1v5.25a1 1 0 0 1-1 1z" transform="translate(20.118 5.9)" style="fill:#1428a0"/>
        <path data-name="패스 45373" d="M0 6.25a1 1 0 0 1-1-1V0a1 1 0 0 1 1-1 1 1 0 0 1 1 1v5.25a1 1 0 0 1-1 1z" transform="rotate(60 -2.247 21.87)" style="fill:#1428a0"/>
        <path data-name="패스 45374" d="M0 6.25a1 1 0 0 1-1-1V0a1 1 0 0 1 1-1 1 1 0 0 1 1 1v5.25a1 1 0 0 1-1 1z" transform="rotate(120 9.067 15.474)" style="fill:#1428a0"/>
        <circle data-name="타원 99" cx=".875" cy=".875" r=".875" transform="translate(19.214 10.901)" style="fill:#222"/>
        <path data-name="타원 99 - 윤곽선" d="M.875 0A.875.875 0 1 1 0 .875.875.875 0 0 1 .875 0z" transform="translate(19.214 10.901)" style="fill:#1428a0"/>
        <path data-name="타원 74" d="M22.75-1a23.756 23.756 0 0 1 9.245 45.633A23.756 23.756 0 0 1 13.505.867 23.6 23.6 0 0 1 22.75-1zm0 45.5a21.756 21.756 0 0 0 8.466-41.791 21.756 21.756 0 0 0-16.932 40.082A21.613 21.613 0 0 0 22.75 44.5z" style="fill:#222"/>
        <path data-name="패스 45367" d="M26.6 30.887a33.3 33.3 0 0 0-9.481-3.725 37.375 37.375 0 0 0-8.43-.906 34.044 34.044 0 0 0-8.284.972l-.549-1.923a35.554 35.554 0 0 1 8.824-1.049 39.377 39.377 0 0 1 8.882.955 35.293 35.293 0 0 1 10.049 3.95z" transform="translate(-.017 -2.18)" style="fill:#222"/>
        <path data-name="패스 45368" d="m6.489 40.482-1.167-1.625a63.269 63.269 0 0 1 12.461-6.68 125.074 125.074 0 0 1 13.309-4.605c8.275-2.388 14.908-3.546 14.976-3.557l.341 1.971C46.343 26 39.8 27.14 31.625 29.5a123 123 0 0 0-13.085 4.529 61.28 61.28 0 0 0-12.051 6.453z" transform="translate(-.738 -1.809)" style="fill:#222"/>
        <path data-name="패스 45369" d="M0-1h5.25a1 1 0 0 1 1 1v13.36a1 1 0 0 1-.736.964l-5.25 1.439a1 1 0 0 1-.871-.169A1 1 0 0 1-1 14.8V0a1 1 0 0 1 1-1zm4.25 2H1v12.487l3.25-.887z" transform="translate(32.088 11.455)" style="fill:#222"/>
        <circle data-name="타원 98" cx="3.063" cy="3.063" r="3.063" transform="translate(6.631 20.019)" style="fill:#fff"/>
        <path data-name="타원 98 - 윤곽선" d="M3.063-1A4.063 4.063 0 1 1-1 3.063 4.067 4.067 0 0 1 3.063-1zm0 6.125A2.063 2.063 0 1 0 1 3.063a2.065 2.065 0 0 0 2.063 2.062z" transform="translate(6.631 20.019)" style="fill:#222"/>
        <path data-name="패스 45375" d="M6 0a6.98 6.98 0 0 1 6.277 4.865c.1.294-7.878 3.584-10.653 6.113-.02.009-2.639-3.235-2.639-3.923A6.846 6.846 0 0 1 6 0z" transform="translate(4.065 26.732)" style="fill:#fff"/>
        <path data-name="패스 45375 - 윤곽선" d="M6-1A7.327 7.327 0 0 1 10.452.62a8.228 8.228 0 0 1 2.776 3.944 1.082 1.082 0 0 1-.561 1.285c-.129.084-.3.184-.55.314-.423.223-1.022.518-1.716.859C8 8.2 3.989 10.174 2.295 11.717l-.286.261h-.387a1.1 1.1 0 0 1-.894-.5A43.83 43.83 0 0 1-.515 9.87c-1.375-1.874-1.5-2.416-1.5-2.8A7.68 7.68 0 0 1 .149 1.416 8.234 8.234 0 0 1 6-1zm5.048 5.465A6.325 6.325 0 0 0 9.221 2.2 5.324 5.324 0 0 0 6 1a6.308 6.308 0 0 0-4.425 1.818 5.707 5.707 0 0 0-1.594 4.14A18.328 18.328 0 0 0 1.766 9.57a55.122 55.122 0 0 1 7.753-4.344 91.538 91.538 0 0 0 1.527-.761z" transform="translate(4.065 26.732)" style="fill:#222"/>
        <path data-name="선 33" d="M0 2.57a.75.75 0 0 1-.75-.75V0A.75.75 0 0 1 0-.75.75.75 0 0 1 .75 0v1.82a.75.75 0 0 1-.75.75z" transform="translate(34.651 14.559)" style="fill:#222"/>
        <path data-name="선 34" d="M0 1.66A.75.75 0 0 1-.75.91V0A.75.75 0 0 1 0-.75.75.75 0 0 1 .75 0v.91a.75.75 0 0 1-.75.75z" transform="translate(34.651 19.109)" style="fill:#222"/>
        <path data-name="패스 45376" d="M17.692 48.7a1 1 0 0 1-.959-1.285l4.832-16.288a1 1 0 0 1 1.917.569L18.65 47.988a1 1 0 0 1-.958.712z" transform="translate(1.589 -2.64)" style="fill:#222"/>
        <path data-name="패스 45378" d="M36.427 48.331a1 1 0 0 1-.961-1.279l5.465-18.8a1 1 0 1 1 1.921.558l-5.465 18.8a1 1 0 0 1-.96.721z" transform="translate(-6.303 -3.071)" style="fill:#222"/>
    </g>
</svg>
