<svg xmlns="http://www.w3.org/2000/svg" width="56" height="56" viewBox="0 0 56 56">
    <path data-name="사각형 12043" transform="translate(6.125 26.061)" style="stroke-width:2px;stroke-linecap:round;stroke:#222;stroke-linejoin:round;fill:none" d="M0 0h10.642v22.466H0z"/>
    <path data-name="사각형 12045" transform="translate(16.767 31.973)" style="stroke-width:2px;stroke-linecap:round;stroke:#222;stroke-linejoin:round;fill:none" d="M0 0h22.466v16.554H0z"/>
    <path data-name="사각형 12046" transform="translate(24.093 37.294)" style="stroke-width:2px;stroke-linecap:round;stroke:#222;stroke-linejoin:round;fill:none" d="M0 0h7.686v11.233H0z"/>
    <path data-name="선 27" transform="translate(11.446 31.901)" style="stroke-width:1.5px;stroke-linecap:round;stroke:#222;stroke-linejoin:round;fill:none" d="M0 0v3.5"/>
    <path data-name="선 28" transform="translate(11.446 40.178)" style="stroke-width:1.5px;stroke-linecap:round;stroke:#222;stroke-linejoin:round;fill:none" d="M0 0v3.5"/>
    <path data-name="선 29" transform="translate(44.554 31.901)" style="stroke-width:1.5px;stroke-linecap:round;stroke:#222;stroke-linejoin:round;fill:none" d="M0 0v3.5"/>
    <path data-name="선 30" transform="translate(44.554 40.178)" style="stroke-width:1.5px;stroke-linecap:round;stroke:#222;stroke-linejoin:round;fill:none" d="M0 0v3.5"/>
    <path data-name="선 32" transform="translate(44.554 23.624)" style="stroke-width:1.5px;stroke-linecap:round;stroke:#222;stroke-linejoin:round;fill:none" d="M0 0v3.5"/>
    <path data-name="선 35" transform="translate(21.291 24.926)" style="stroke:#1428a0;stroke-width:2px;stroke-linecap:round;fill:none" d="M0 0h13.88"/>
    <path data-name="선 36" transform="translate(21.291 19.676)" style="stroke:#1428a0;stroke-width:2px;stroke-linecap:round;fill:none" d="M0 0h13.88"/>
    <path data-name="선 37" transform="translate(21.291 14.426)" style="stroke:#1428a0;stroke-width:2px;stroke-linecap:round;fill:none" d="M0 0h13.88"/>
    <path data-name="사각형 13774" transform="translate(16.767 7.875)" style="stroke-width:2px;stroke-linecap:round;stroke:#222;stroke-linejoin:round;fill:none" d="M0 0h22.466v24.099H0z"/>
    <path data-name="사각형 13775" transform="translate(39.233 19.047)" style="stroke-width:2px;stroke-linecap:round;stroke:#222;stroke-linejoin:round;fill:none" d="M0 0h10.642v29.48H0z"/>
</svg>
