<svg xmlns="http://www.w3.org/2000/svg" width="16.895" height="16.392" viewBox="0 0 16.895 16.392">
    <defs>
        <style>
            .cls-2{fill:none;stroke:#222;stroke-width:2px}
        </style>
    </defs>
    <g id="ico_refresh" transform="translate(-397 -117.027)">
        <path id="사각형_13260" data-name="사각형 13260" transform="translate(397 117.393)" style="fill:#fff;opacity:.005" d="M0 0h16v16H0z"/>
        <g id="그룹_4737" data-name="그룹 4737" transform="translate(-802.301 -2390.777)">
            <path id="패스_45392" data-name="패스 45392" class="cls-2" d="M5 0a5.165 5.165 0 0 1 3.554 1.484A4.812 4.812 0 0 1 10 5a5.166 5.166 0 0 1-1.5 3.573A4.808 4.808 0 0 1 5 10a5.165 5.165 0 0 1-3.566-1.5A4.81 4.81 0 0 1 0 5a5.168 5.168 0 0 1 1.464-3.536" transform="rotate(-30 5292.09 -984.329)"/>
            <path id="패스_45393" data-name="패스 45393" class="cls-2" d="M1.135 17.625v-4h4" transform="rotate(45 -2415.69 2714.583)"/>
        </g>
    </g>
</svg>
